<svg width="18" height="18" viewBox="0 0 18 18" fill="none" xmlns="http://www.w3.org/2000/svg">
<path fill-rule="evenodd" clip-rule="evenodd" d="M0.5 1.75928C0.5 1.06381 1.06381 0.5 1.75928 0.5H17.5V16.2407C17.5 16.9362 16.9362 17.5 16.2407 17.5C15.5453 17.5 14.9814 16.9362 14.9814 16.2407V7.8395C14.9814 6.71758 13.6251 6.15581 12.8318 6.94903L3.27933 16.5015C2.78752 16.9933 1.99022 16.9933 1.49849 16.5015C1.00668 16.0098 1.00668 15.2125 1.49849 14.7207L11.051 5.1682C11.8442 4.3749 11.2824 3.01855 10.1605 3.01855H1.75928C1.06381 3.01855 0.5 2.45475 0.5 1.75928Z" fill="white"/>
</svg>
