<svg width="309" height="109" viewBox="0 0 309 109" fill="none" xmlns="http://www.w3.org/2000/svg">
<path d="M99.4981 0V0.0156234L89.8441 9.69271V0H80.2057L64.1365 16.1077V58H70.5673V19.3386L83.4133 6.44619V58H89.8441V19.3386L102.706 6.44619V58H109.136V0H99.4981Z" fill="white"/>
<path d="M0.136475 58H26.1365V0H16.3943L0.152204 16.1077V58H0.136475ZM19.6365 6.44619V51.5538H6.63648V19.3229L19.6365 6.43056V6.44619Z" fill="white"/>
<path d="M58.1365 0H32.1365V58H58.1365V0ZM38.6365 6.44619H51.6365V51.5538H38.6365V6.44619Z" fill="white"/>
<path d="M109.136 64H0.136475V70H109.136V64Z" fill="white"/>
<path d="M0.136475 77V109H6.56503V102.6H45.1365V77H0.136475ZM38.7079 96.2H6.56503V83.4H38.7079V96.2Z" fill="white"/>
<path d="M51.1365 77V102.6H76.9143V109H83.3587V102.6H109.136V77H51.1521H51.1365ZM57.5809 83.4H76.9143V96.2H57.5809V83.4ZM102.676 96.2H83.3431V83.4H102.676V96.2Z" fill="white"/>
<path d="M210.739 72H199.136V43H218.307V48.0571H204.797V53.9257H210.739C216.556 53.9257 220.136 57.6717 220.136 62.9629C220.136 68.254 216.603 72 210.739 72ZM210.457 58.9672H204.797V66.9585H210.457C212.975 66.9585 214.492 65.3665 214.492 62.9629C214.492 60.5592 212.991 58.9828 210.457 58.9828V58.9672Z" fill="white"/>
<path d="M243.357 72L241.675 66.8649H231.614L229.901 72H224.136L234.442 43H238.785L249.136 72H243.372H243.357ZM236.751 51.5533L233.173 62.1044H240.222L236.766 51.5533H236.751Z" fill="white"/>
<path d="M271.494 72V59.8568H261.748V72H256.136V43H261.748V54.8466H271.494V43H277.136V72H271.494Z" fill="white"/>
<path d="M285.136 72V43H290.859V56.7664L300.312 43H307.156L297.324 56.6103L308.136 72H301.15L290.859 56.8445V72H285.136Z" fill="white"/>
<path d="M160.136 0H154.136V109H160.136V0Z" fill="white"/>
</svg>
