<svg width="72" height="37" viewBox="0 0 72 37" fill="none" xmlns="http://www.w3.org/2000/svg">
<path d="M13.1905 23.3995C7.87305 23.3995 3.55559 19.0288 3.55559 13.6637C3.55559 8.29855 7.88099 3.92788 13.1905 3.92788C18.5 3.92788 22.8254 8.29855 22.8254 13.6637C22.8254 19.0288 18.508 23.3995 13.1905 23.3995ZM58.8412 0.33509C53.9762 0.33509 49.7143 3.01364 47.4285 6.99938C45.1428 3.02166 40.8889 0.33509 36.0159 0.33509C31.1428 0.33509 26.8889 3.01364 24.6032 6.99938C22.3174 3.02166 18.0635 0.33509 13.1905 0.33509C5.92068 0.33509 0 6.31771 0 13.6637V36.3271H3.54764V22.7419C5.9524 25.3482 9.38098 26.9842 13.1826 26.9842C16.9841 26.9842 20.4127 25.3482 22.8174 22.7419V27.0003H26.3651V13.6557C26.3651 8.28253 30.6905 3.91986 36 3.91986C41.3095 3.91986 45.6349 8.29055 45.6349 13.6557V27.0003H49.1825V13.6557C49.1825 8.28253 53.5079 3.91986 58.8175 3.91986C64.127 3.91986 68.4523 8.29055 68.4523 13.6557V27.0003H72V13.6557C72.0158 6.30971 66.1031 0.327087 58.8333 0.327087L58.8412 0.33509Z" fill="white"/>
</svg>
