<svg width="216" height="35" viewBox="0 0 216 35" fill="none" xmlns="http://www.w3.org/2000/svg">
<path d="M41.9287 12.5163C41.2728 8.37153 36.1896 5.66101 36.1896 5.66101C36.1896 5.66101 38.4441 8.25313 39.0454 11.3058C39.5783 14.0163 38.7038 15.8847 38.7038 15.8847C38.7038 15.8847 37.6791 11.6873 33.8804 8.17418C30.8879 5.3847 25.9824 3.56891 25.9824 3.56891C25.9824 3.56891 23.8234 10.3978 29.863 17.2794C28.7289 16.5821 27.3625 15.911 25.7774 15.4505C22.7849 14.5821 19 14.9637 19 14.9637C19 14.9637 21.5141 21.5557 31.0518 23.5689C24.7526 19.6873 22.8806 16.3189 22.8806 16.3189C22.8806 16.3189 24.7116 16.4505 27.6221 17.6084C29.5351 18.3715 34.3176 20.661 38.9088 23.1084C37.1461 21.7926 34.468 19.7268 32.8556 18.0163C27.8271 12.7663 29.4395 7.58206 29.4395 7.58206C29.4395 7.58206 32.4046 8.95049 34.8915 12.1216C36.5312 14.2268 38.7721 19.6347 38.7721 19.6347C38.7721 19.6347 42.7075 17.5558 41.8876 12.5031L41.9287 12.5163Z" fill="white"/>
<path d="M61.6643 24.1094C57.4345 23.0122 53.2594 22.7143 53.2594 22.7143C53.2594 22.7143 55.6686 22.2808 58.5159 22.0506C63.0195 21.6849 67.003 22.7549 67.003 22.7549C67.003 22.7549 66.6607 24.0416 65.9215 25.369C65.9215 25.369 66.7976 25.0168 67.5778 24.5022C69.6311 23.1477 69.7407 21.6442 69.7407 21.6442C69.7407 21.6442 66.2364 19.9106 60.8156 20.4388C60.6651 20.4523 60.3501 20.5201 60.3501 20.5201C60.3501 20.5201 60.843 20.3169 61.281 20.0054C64.2515 17.9059 64.9086 14.9397 64.9086 14.9397C64.9086 14.9397 60.9798 14.4792 57.9683 15.0751C52.0958 16.2129 50.1109 20.5065 50.1109 20.5065C50.1109 20.5065 53.1363 18.5696 55.1896 17.9195C57.6536 17.1474 60.227 17.2016 60.227 17.2016C60.227 17.2016 57.9546 20.195 53.5468 21.414C50.5627 22.2402 47.2363 22.484 47.2363 22.484C47.2363 22.484 49.0296 15.9149 57.8862 13.9103C63.2385 12.7048 71 14.0458 71 14.0458C71 14.0458 61.7738 9.7792 53.6016 13.2195C59.1867 7.85587 54.9979 0.568909 54.9979 0.568909C54.9979 0.568909 49.4676 1.5441 46.0043 4.32074C43.0612 6.67749 42.1853 9.88755 42.7192 11.7296C42.7192 11.7296 43.9921 9.49478 46.7299 7.09739C49.0706 5.03862 51.9043 3.68414 51.9043 3.68414C51.9043 3.68414 52.9036 8.91237 50.3848 14.1677C46.3877 22.5246 41.1723 24.9491 41.1723 24.9491C41.1723 24.9491 50.8776 23.9739 56.9144 25.3013C61.9929 26.4255 64.4704 28.0373 64.4704 28.0373C64.4704 28.0373 57.0786 32.6289 45.0325 30.3263C36.9835 28.7822 33 25.9514 33 25.9514C33 25.9514 38.9957 31.4776 48.6326 33.0081C64.3884 35.5274 69.5491 28.7416 69.5491 28.7416C69.5491 28.7416 66.5101 25.3555 61.6232 24.0687L61.6643 24.1094Z" fill="white"/>
<path d="M19.9274 33.22C23.779 33.1664 28 32.1072 28 32.1072C28 32.1072 25.6521 33.582 24.5705 34.0244C23.4097 34.507 22.249 35.2176 19.6769 34.936C16.0495 34.5338 13.7411 33.0859 12 32C12 32 14.2027 33.3004 19.9142 33.22H19.9274Z" fill="white"/>
<path d="M18.3769 29.9264C13.0526 28.2561 9.98298 25.7301 7.93204 23.4248C7.93204 23.4248 13.0933 25.0951 18.4991 26.0061C22.9541 26.7515 28.9304 28.4632 32 30.9202C29.6638 26.9862 24.6384 24.1979 18.1325 23.4248C4.07475 21.7684 0.665535 18.566 0 18C0.706282 19.9325 4.14259 28.2838 12.9575 30.9341C20.1154 33.1012 28.9168 31.293 28.9168 31.293C28.9168 31.293 24.5704 31.8589 18.3769 29.9126V29.9264Z" fill="white"/>
<path d="M80.0299 14.6858C80.4889 14.6858 80.9479 14.6724 81.2085 14.5376C81.5558 14.349 81.742 13.7428 81.8909 13.123C82.1018 12.3551 82.5732 11.8162 83.8139 12.0587V12.7458C83.2183 12.7054 82.9951 12.8132 82.809 13.4194C82.6229 14.0661 82.4368 14.6454 82.0274 15.0091L84 17.8518V18H82.8585L81.1341 15.4133C80.8736 15.5076 80.3028 15.5077 80.005 15.5077V18H79V12.0587H80.005V14.6858H80.0174H80.0299Z" fill="white"/>
<path d="M87.5071 16.2303C88.2153 16.2177 88.9235 15.8013 88.9235 14.9938C88.9235 14.1863 88.1728 13.7446 87.4504 13.7572C86.7422 13.7699 86.0481 14.1863 86.0481 14.9938C86.0481 15.8013 86.7847 16.2429 87.5071 16.2303ZM87.4929 17C86.2465 17 85 16.3313 85 14.9938C85 13.6563 86.2181 13.0128 87.4646 13.0002C88.7393 12.9876 90 13.6563 90 14.9938C89.9858 16.3313 88.7252 17 87.4929 17Z" fill="white"/>
<path d="M91.5055 15.9487C91.8922 16.1667 92.3066 16.2692 92.6795 16.2564C93.3701 16.2308 93.9503 15.7949 93.9503 15.0128C93.9503 14.3718 93.5359 13.7692 92.7071 13.7692C91.9889 13.7692 91.5193 14.2692 91.5193 14.8461V15.9231H91.5055V15.9487ZM92.9143 13C94.2818 13 95 13.9616 95 15.0257C95 16.2821 93.9364 17.0898 92.6933 17.0385C92.3066 17.0257 91.9061 16.9231 91.5331 16.7308V19H90.4972V14.359C90.4972 13.8975 90.5387 13.6923 90 13.6923V13.0898C90.7459 12.9615 91.3259 13.0641 91.3259 13.7564C91.5883 13.2052 92.2375 13.0128 92.9005 13.0128L92.9143 13Z" fill="white"/>
<path d="M95 13.0769C95.687 12.9231 96.3996 13.0769 96.3996 13.7176C96.6668 13.2178 97.2266 13 97.8245 13C98.9823 13 99.5292 13.692 99.5038 14.653V16.0369C99.5038 16.3188 99.5929 16.4341 100 16.3828V16.9467C99.1858 17.0876 98.5624 16.9979 98.5624 16.0753V14.6914C98.5624 14.0764 98.117 13.7176 97.5572 13.7176C96.9593 13.7176 96.4886 14.102 96.4886 14.7171V16.9723H95.5089V14.2686C95.5089 13.7432 95.5344 13.5894 95.0127 13.6279V13.0641L95 13.0769Z" fill="white"/>
<path d="M103.507 16.2303C104.215 16.2177 104.924 15.8013 104.924 14.9938C104.924 14.1863 104.173 13.7446 103.45 13.7572C102.742 13.7699 102.048 14.1863 102.048 14.9938C102.062 15.8266 102.799 16.2429 103.507 16.2303ZM103.493 17C102.247 17 101 16.3313 101 14.9938C101 13.6563 102.218 13.0128 103.465 13.0002C104.739 12.9876 106 13.6563 106 14.9938C106 16.3313 104.754 17 103.493 17Z" fill="white"/>
<path d="M107.506 15.9487C107.892 16.1667 108.307 16.2692 108.68 16.2564C109.37 16.2308 109.95 15.7949 109.95 15.0128C109.95 14.3718 109.536 13.7692 108.707 13.7692C107.989 13.7692 107.519 14.2692 107.519 14.8461V15.9231H107.506V15.9487ZM108.915 13C110.282 13 111 13.9616 111 15.0257C111 16.2821 109.937 17.0898 108.693 17.0385C108.307 17.0257 107.906 16.9231 107.533 16.7308V19H106.497V14.359C106.497 13.8975 106.539 13.6923 106 13.6923V13.0898C106.746 12.9615 107.326 13.0641 107.326 13.7564C107.589 13.2052 108.238 13.0128 108.901 13.0128L108.915 13Z" fill="white"/>
<path d="M115.388 15.3072C115.018 15.1442 114.545 15.0439 114.116 15.0564C113.568 15.0689 113.11 15.3072 113.11 15.7711C113.11 16.1599 113.554 16.3229 113.997 16.3229C114.574 16.3229 115.27 16.1097 115.373 15.6332V15.3198H115.388V15.3072ZM113.776 17C112.888 17 112.001 16.5486 112.001 15.8088C111.971 14.9059 112.829 14.4671 113.924 14.4671C114.397 14.4671 114.944 14.5548 115.388 14.7429V14.3542C115.388 13.3511 113.169 13.6771 112.563 13.9153L112.4 13.3009C112.903 13.1128 113.554 13 114.219 13C115.417 13 116.482 13.3135 116.482 14.3793V15.884C116.482 16.2351 116.468 16.4733 117 16.4357V16.9248C116.231 17.0251 115.639 17.0251 115.61 16.2727C115.284 16.7743 114.486 16.9874 113.79 16.9874L113.776 17Z" fill="white"/>
<path d="M119.373 16.3163C119.982 16.3163 120.439 15.9148 120.439 15.2801V13.0395H121.391V15.9666C121.391 16.4458 121.518 16.5106 122 16.4976L121.949 18H121.226V17.0416C120.718 17.0934 120.515 16.8473 120.515 16.3681C120.274 16.8991 119.69 17.0416 119.094 17.0416C117.914 17.0416 117.52 16.3163 117.52 15.332V14.1015C117.52 13.7777 117.508 13.5446 117 13.6094V13.0654C117.901 12.8711 118.498 13.0913 118.498 13.9721V15.319C118.472 15.9536 118.84 16.3163 119.398 16.3163H119.373Z" fill="white"/>
<path d="M122.533 15.2901V14.1594C122.533 13.7783 122.481 13.6131 122.013 13.6513C122.013 13.4861 122 13.2193 122 13.0542C122.883 12.889 123.533 13.0796 123.533 13.9307V15.2773C123.52 15.8998 123.896 16.2682 124.468 16.2682C125.091 16.2682 125.558 15.8617 125.558 15.2519V13.0542H126.532V15.8109C126.532 16.2809 126.571 16.408 127 16.3698V16.9415C126.468 17.0305 125.701 17.1321 125.701 16.3063C125.416 16.8272 124.766 16.9924 124.156 16.9924C122.961 16.9797 122.546 16.2301 122.546 15.2901H122.533Z" fill="white"/>
<path d="M130.977 15.9934V14.6997H130.06C129.555 14.6997 129.209 14.9637 129.209 15.3597C129.209 15.7558 129.568 15.9934 130.06 15.9934H130.977ZM129.156 16.5611C128.611 16.3894 128.199 15.901 128.199 15.3465C128.199 14.6204 128.811 14 129.767 14H132V18H130.99V16.7063H130.153L129.076 18H128V17.9076L129.143 16.5478L129.156 16.5611Z" fill="white"/>
<path d="M137.505 15.9487C137.892 16.1667 138.307 16.2692 138.679 16.2564C139.37 16.2308 139.95 15.7949 139.95 15.0128C139.95 14.3718 139.536 13.7692 138.707 13.7692C137.989 13.7692 137.519 14.2692 137.519 14.8461V15.9231H137.505V15.9487ZM138.914 13C140.282 13 141 13.9616 141 15.0257C141 16.2821 139.936 17.0898 138.693 17.0385C138.307 17.0257 137.906 16.9231 137.533 16.7308V19H136.497V14.359C136.497 13.8975 136.539 13.6923 136 13.6923V13.0898C136.746 12.9615 137.326 13.0641 137.326 13.7564C137.588 13.2052 138.238 13.0128 138.901 13.0128L138.914 13Z" fill="white"/>
<path d="M144.388 15.3072C144.018 15.1442 143.545 15.0439 143.116 15.0564C142.568 15.0689 142.11 15.3072 142.11 15.7711C142.11 16.1599 142.554 16.3229 142.997 16.3229C143.574 16.3229 144.269 16.1097 144.373 15.6332V15.3198H144.388V15.3072ZM142.776 17C141.888 17 141.001 16.5486 141.001 15.8088C140.971 14.9059 141.829 14.4671 142.923 14.4671C143.397 14.4671 143.944 14.5548 144.388 14.7429V14.3542C144.388 13.3511 142.169 13.6771 141.563 13.9153L141.4 13.3009C141.903 13.1128 142.554 13 143.219 13C144.417 13 145.482 13.3135 145.482 14.3793V15.884C145.482 16.2351 145.468 16.4733 146 16.4357V16.9248C145.231 17.0251 144.639 17.0251 144.61 16.2727C144.284 16.7743 143.486 16.9874 142.79 16.9874L142.776 17Z" fill="white"/>
<path d="M146.181 13.3028C146.599 13.1136 147.254 13 147.882 13C148.801 13 149.721 13.2397 149.721 14.0473C149.721 14.4006 149.484 14.7413 148.997 14.8423C149.596 14.9558 150 15.3091 150 15.8139C150 16.6719 148.997 17 147.965 17C147.227 17 146.474 16.8486 146 16.6088L146.056 15.877C146.362 16.0663 147.185 16.2682 147.798 16.2808C148.355 16.2808 148.955 16.1924 148.955 15.7634C148.955 15.2461 148.23 15.1956 147.728 15.1956H147.045V14.6025H147.687C148.119 14.6025 148.704 14.5773 148.704 14.1356C148.704 13.7319 148.16 13.6435 147.687 13.6435C147.254 13.6435 146.585 13.7319 146.223 13.9085L146.181 13.2776V13.3028Z" fill="white"/>
<path d="M151.905 16.1365C152.223 16.2253 152.553 16.276 152.823 16.276C153.557 16.2633 154.119 15.9336 154.119 15.1853C154.119 14.437 153.642 14.0946 152.847 14.1073C152.554 14.1073 152.235 14.158 151.905 14.2595V16.1492V16.1365ZM151.905 13.5365C152.627 13.3083 153.74 13.3844 153.74 12.5219C153.752 12.0273 153.324 11.7229 152.835 11.7229C152.346 11.7229 151.905 12.0146 151.905 12.5473V13.5365ZM154.621 12.4966C154.621 13.0039 154.315 13.3971 153.85 13.6127C154.645 13.8156 154.988 14.4244 155 15.1853C155 16.5043 153.985 16.9863 152.81 16.9989C152.211 17.0116 151.563 16.9102 151 16.7199V12.56C151 11.5834 151.783 11 152.798 11C153.813 11 154.621 11.4947 154.621 12.4966Z" fill="white"/>
<path d="M156.532 15.2901V14.1594C156.532 13.7783 156.481 13.6131 156.013 13.6513C156.013 13.4861 156 13.2193 156 13.0542C156.883 12.889 157.532 13.0796 157.532 13.9307V15.2773C157.519 15.8998 157.896 16.2682 158.467 16.2682C159.091 16.2682 159.558 15.8617 159.558 15.2519V13.0542H160.532V15.8109C160.532 16.2809 160.571 16.408 161 16.3698V16.9415C160.468 17.0305 159.701 17.1321 159.701 16.3063C159.416 16.8272 158.766 16.9924 158.156 16.9924C156.974 16.9797 156.545 16.2301 156.545 15.2901H156.532Z" fill="white"/>
<path d="M162 13.0892C162.694 12.9109 163.496 13.0382 163.496 13.726C163.776 13.242 164.377 13.0128 164.978 13.0255C165.579 13.0382 166.087 13.2675 166.314 13.7515C166.675 13.2293 167.275 13 167.916 13C169.132 13 169.452 13.8024 169.452 14.6813V15.9167C169.452 16.2352 169.466 16.4644 170 16.4007V16.9357C169.052 17.1267 168.424 16.9102 168.424 16.0441V14.6813C168.437 14.0954 168.157 13.7133 167.556 13.7133C166.942 13.726 166.527 14.1081 166.527 14.7067V16.9484H165.539V14.7322C165.553 14.1336 165.259 13.7388 164.631 13.7388C164.003 13.7515 163.549 14.1336 163.549 14.7449V16.9739H162.534V14.3374C162.534 13.8152 162.521 13.6241 162 13.6623V13.0892Z" fill="white"/>
<path d="M170.532 15.2901V14.1594C170.532 13.7783 170.481 13.6131 170.013 13.6513C170.013 13.4861 170 13.2193 170 13.0542C170.883 12.889 171.532 13.0796 171.532 13.9307V15.2773C171.52 15.8998 171.896 16.2682 172.468 16.2682C173.091 16.2682 173.558 15.8617 173.558 15.2519V13.0542H174.532V15.8109C174.532 16.2809 174.571 16.408 175 16.3698V16.9415C174.468 17.0305 173.701 17.1321 173.701 16.3063C173.416 16.8272 172.766 16.9924 172.156 16.9924C170.961 16.9797 170.545 16.2301 170.545 15.2901H170.532Z" fill="white"/>
<path d="M178.977 15.9934V14.6997H178.06C177.555 14.6997 177.209 14.9637 177.209 15.3597C177.209 15.7558 177.555 15.9934 178.06 15.9934H178.977ZM177.156 16.5611C176.611 16.3894 176.199 15.901 176.199 15.3465C176.199 14.6204 176.811 14 177.768 14H180V18H178.99V16.7063H178.153L177.076 18H176V17.9076L177.143 16.5478L177.156 16.5611Z" fill="white"/>
<path d="M80.882 27.2226H84.0897L82.4501 23.6816H82.4359L80.882 27.2226ZM79.941 29H79V27.2363H79.7128L82.1934 22H82.6783L85.2444 27.2363H86V29H85.0733V28.084H79.9267V29H79.941Z" fill="white"/>
<path d="M89.3879 26.3072C89.0181 26.1442 88.5448 26.0439 88.1159 26.0564C87.5686 26.069 87.11 26.3072 87.11 26.7711C87.11 27.1599 87.5537 27.3229 87.9974 27.3229C88.5743 27.3229 89.2695 27.1097 89.3731 26.6332V26.3198H89.3879V26.3072ZM87.7757 28C86.8883 28 86.0007 27.5486 86.0007 26.8088C85.9712 25.906 86.8291 25.4671 87.9236 25.4671C88.3969 25.4671 88.9441 25.5549 89.3879 25.743V25.3543C89.3879 24.3511 87.1692 24.6771 86.5628 24.9154L86.4001 24.301C86.903 24.1129 87.5538 24 88.2193 24C89.4174 24 90.4824 24.3135 90.4824 25.3793V26.884C90.4824 27.2351 90.4675 27.4734 91 27.4358V27.9248C90.2309 28.0251 89.6393 28.0251 89.6098 27.2727C89.2844 27.7743 88.4855 27.9874 87.7904 27.9874L87.7757 28Z" fill="white"/>
<path d="M93.7119 24L96 27.8957V27.987H94.8417L94.2486 26.8274L93.5141 25.3551H93.5L92.7655 26.8274L92.1441 28H91V27.9088L93.274 24.013H93.7119V24Z" fill="white"/>
<path d="M97.0174 25.9148V27.2918H97.9373C98.4948 27.2918 98.9826 27.082 98.9826 26.6098C98.9826 26.1377 98.5087 25.9279 97.9373 25.9279H97.0174V25.9148ZM96 27.9738V24H97.0174V25.2459H97.9513C99.0105 25.2459 100 25.6 100 26.623C100 27.6459 98.9965 28 97.9373 28H96V27.9738Z" fill="white"/>
<path d="M100.526 27.9454V25.1681C100.526 24.7841 100.474 24.6177 100.013 24.6561C100.013 24.4897 100 24.221 100 24.0546C100.872 23.8882 101.474 24.0802 101.474 24.9377V25.5392H103.526V24.0546H104.474V26.8319C104.474 27.2159 104.526 27.3823 104.987 27.3439C104.987 27.5103 105 27.779 105 27.9454C104.128 28.1118 103.526 27.9198 103.526 27.0623V26.32H101.462V27.9454H100.526Z" fill="white"/>
<path d="M106.931 25.5595H109.181C109.206 24.981 108.704 24.6791 108.117 24.6791C107.53 24.6791 107.065 24.9558 106.943 25.5595H106.931ZM109.927 26.1632H106.918C106.918 26.8549 107.506 27.2825 108.252 27.2825C108.753 27.3077 109.255 27.2448 109.732 27.0436L109.854 27.685C109.377 27.8737 108.826 27.9994 108.301 27.9994C106.955 28.0246 105.964 27.2197 106.001 25.9243C106.025 24.6414 107.016 24 108.129 24C109.573 24.0126 110.209 24.893 109.94 26.1632H109.927Z" fill="white"/>
<path d="M115 26.7875C114.92 27.725 113.943 28 112.953 28C111.963 28 111 27.7125 111 26.8625C111 25.975 111.91 25.75 112.846 25.65C113.542 25.575 113.93 25.5125 113.93 25.1625C113.93 24.775 113.448 24.65 113.007 24.65C112.525 24.65 112.097 24.7625 112.097 25.15H111.214C111.187 24.4 111.99 24 113.02 24C113.997 24 114.92 24.35 114.92 25.175C114.893 26.025 113.876 26.1375 112.94 26.2375C112.351 26.3 111.977 26.475 111.977 26.825C112.003 27.2875 112.498 27.3375 112.993 27.3375C113.488 27.3375 113.957 27.1625 113.983 26.7625H115V26.7875Z" fill="white"/>
<path d="M118.507 27.2303C119.215 27.2177 119.924 26.8013 119.924 25.9938C119.924 25.1862 119.173 24.7446 118.45 24.7572C117.742 24.7698 117.048 25.1862 117.048 25.9938C117.062 26.8265 117.785 27.2429 118.507 27.2303ZM118.493 28C117.246 28 116 27.3313 116 25.9938C116 24.6563 117.218 24.0128 118.465 24.0002C119.739 23.9876 121 24.6563 121 25.9938C121 27.3313 119.725 28 118.493 28Z" fill="white"/>
<path d="M125.081 25.3605V27.1429H126.865C127.473 27.1429 127.906 26.8299 127.933 26.2585C127.933 25.9592 127.824 25.7143 127.595 25.551C127.338 25.3877 127.054 25.3605 126.743 25.3605H125.068H125.081ZM125.081 22.898V24.5442H126.581C127.203 24.5442 127.635 24.3265 127.649 23.7415C127.649 23.1429 127.23 22.898 126.581 22.898H125.081ZM127.946 24.8571C128.622 25.0612 129 25.5646 129 26.2449C129 27.3061 128.203 28 126.933 28H124V22H126.662C127.851 22 128.716 22.5578 128.716 23.6871C128.716 24.2041 128.46 24.6258 127.946 24.8435V24.8571Z" fill="white"/>
<path d="M132.507 27.2303C133.215 27.2177 133.924 26.8013 133.924 25.9938C133.924 25.1862 133.173 24.7446 132.451 24.7572C131.742 24.7698 131.048 25.1862 131.048 25.9938C131.048 26.8013 131.785 27.2429 132.507 27.2303ZM132.493 28C131.246 28 130 27.3313 130 25.9938C130 24.6563 131.218 24.0128 132.465 24.0002C133.739 23.9876 135 24.6563 135 25.9938C134.986 27.3313 133.725 28 132.493 28Z" fill="white"/>
<path d="M138.923 25.3756C138.702 24.9592 138.186 24.7573 137.625 24.7573C136.858 24.7573 136.091 25.1863 136.091 25.9938C136.091 26.8013 136.858 27.243 137.611 27.243C138.156 27.243 138.717 27.0158 138.938 26.549H140C139.749 27.5079 138.673 28 137.596 28C136.313 28 135 27.3313 135 26.0064C135 24.6816 136.298 24.0002 137.581 24.0002C138.658 23.9876 139.705 24.4545 139.97 25.3882H138.953L138.923 25.3756Z" fill="white"/>
<path d="M140 24.0891C140.694 23.9108 141.496 24.0382 141.496 24.726C141.776 24.242 142.377 24.0127 142.978 24.0255C143.579 24.0382 144.087 24.2675 144.314 24.7515C144.674 24.2293 145.275 24 145.916 24C147.132 24 147.452 24.8024 147.452 25.6812V26.9167C147.452 27.2351 147.466 27.4644 148 27.4007V27.9357C147.052 28.1267 146.424 27.9102 146.424 27.0441V25.7067C146.437 25.1208 146.157 24.7387 145.556 24.7387C144.941 24.7515 144.528 25.1336 144.528 25.7322V27.9739H143.539V25.7322C143.553 25.1336 143.259 24.7387 142.631 24.7387C142.003 24.7515 141.549 25.1336 141.549 25.7449V27.9739H140.534V25.3373C140.534 24.8151 140.521 24.6241 140 24.6623V24.0891Z" fill="white"/>
<path d="M151.507 27.2303C152.215 27.2177 152.923 26.8013 152.923 25.9938C152.923 25.1862 152.173 24.7446 151.45 24.7572C150.742 24.7698 150.048 25.1862 150.048 25.9938C150.048 26.8013 150.785 27.2429 151.507 27.2303ZM151.493 28C150.246 28 149 27.3313 149 25.9938C149 24.6563 150.218 24.0128 151.465 24.0002C152.739 23.9876 154 24.6563 154 25.9938C153.986 27.3313 152.725 28 151.493 28Z" fill="white"/>
<path d="M158.711 24.0391H157.805C157.805 24.9902 157.428 25.6157 156.384 25.6157H155.943V24H155V28H155.943V26.3713H156.371C156.509 26.3713 156.686 26.3583 156.824 26.3323L157.994 28H159V27.9088L157.654 26.0456C158.497 25.6808 158.723 24.899 158.723 24.0391H158.711Z" fill="white"/>
<path d="M162.388 26.3072C162.018 26.1442 161.545 26.0439 161.116 26.0564C160.569 26.069 160.11 26.3072 160.11 26.7711C160.11 27.1599 160.554 27.3229 160.997 27.3229C161.574 27.3229 162.27 27.1097 162.373 26.6332V26.3198H162.388V26.3072ZM160.776 28C159.888 28 159.001 27.5486 159.001 26.8088C158.971 25.906 159.829 25.4671 160.924 25.4671C161.397 25.4671 161.944 25.5549 162.388 25.743V25.3543C162.388 24.3511 160.169 24.6771 159.563 24.9154L159.4 24.301C159.903 24.1129 160.554 24 161.219 24C162.417 24 163.482 24.3135 163.482 25.3793V26.884C163.482 27.2351 163.468 27.4734 164 27.4358V27.9248C163.231 28.0251 162.639 28.0251 162.61 27.2727C162.284 27.7743 161.486 27.9874 160.79 27.9874L160.776 28Z" fill="white"/>
<path d="M167.533 26.2901V25.1594C167.533 24.7783 167.481 24.6131 167.013 24.6513C167.013 24.4861 167 24.2193 167 24.0542C167.883 23.889 168.533 24.0796 168.533 24.9307V26.2773C168.52 26.8998 168.896 27.2682 169.468 27.2682C170.091 27.2682 170.558 26.8617 170.558 26.2519V24.0415H171.532V26.8109C171.532 27.281 171.571 27.408 172 27.3699V27.9415C171.468 28.0305 170.701 28.1321 170.701 27.3063C170.416 27.8272 169.766 27.9924 169.156 27.9924C167.961 27.9797 167.546 27.2301 167.546 26.2901H167.533Z" fill="white"/>
<path d="M176.271 25.9324H178.729L177.514 23.554L176.271 25.9324ZM175.895 26.7567L175.215 28H174V27.8784L177.24 22H177.775L181 27.8784V28H179.785L179.091 26.7567H175.895Z" fill="white"/>
<path d="M182.506 26.9487C182.892 27.1667 183.307 27.2692 183.68 27.2564C184.37 27.2308 184.95 26.7949 184.95 26.0128C184.95 25.3718 184.536 24.7692 183.707 24.7692C182.989 24.7692 182.519 25.2692 182.519 25.8462V26.9231H182.506V26.9487ZM183.914 24C185.282 24 186 24.9615 186 26.0256C186 27.282 184.937 28.0897 183.693 28.0385C183.307 28.0256 182.906 27.9231 182.533 27.7308V30H181.497V25.359C181.497 24.8974 181.539 24.6923 181 24.6923V24.0898C181.746 23.9615 182.326 24.0641 182.326 24.7564C182.589 24.2051 183.238 24.0128 183.901 24.0128L183.914 24Z" fill="white"/>
<path d="M190.722 24.0391H189.814C189.814 24.9902 189.435 25.6157 188.388 25.6157H187.946V24H187V28H187.946V26.3713H188.375C188.514 26.3713 188.691 26.3583 188.83 26.3323L190.003 28H191V27.9088L189.65 26.0456C190.495 25.6808 190.735 24.899 190.722 24.0391Z" fill="white"/>
<path d="M192 24.0891C192.694 23.9108 193.496 24.0382 193.496 24.726C193.776 24.242 194.377 24.0127 194.978 24.0255C195.579 24.0382 196.087 24.2675 196.314 24.7515C196.674 24.2293 197.275 24 197.916 24C199.132 24 199.452 24.8024 199.452 25.6812V26.9167C199.452 27.2351 199.466 27.4644 200 27.4007V27.9357C199.052 28.1267 198.424 27.9102 198.424 27.0441V25.7067C198.437 25.1208 198.157 24.7387 197.556 24.7387C196.941 24.7515 196.527 25.1336 196.527 25.7322V27.9739H195.539V25.7322C195.552 25.1336 195.259 24.7387 194.631 24.7387C194.003 24.7515 193.549 25.1336 193.549 25.7449V27.9739H192.534V25.3373C192.534 24.8151 192.521 24.6241 192 24.6623V24.0891Z" fill="white"/>
<path d="M200.532 26.2901V25.1594C200.532 24.7783 200.48 24.6131 200.013 24.6513C200.013 24.4861 200 24.2193 200 24.0542C200.883 23.889 201.532 24.0796 201.532 24.9307V26.2773C201.519 26.8998 201.896 27.2682 202.467 27.2682C203.091 27.2682 203.558 26.8617 203.558 26.2519V24.0415H204.532V26.8109C204.532 27.281 204.571 27.408 205 27.3699V27.9415C204.468 28.0305 203.701 28.1321 203.701 27.3063C203.416 27.8272 202.766 27.9924 202.156 27.9924C200.961 27.9797 200.545 27.2301 200.545 26.2901H200.532Z" fill="white"/>
<path d="M211.532 26.2901V25.1594C211.532 24.7783 211.481 24.6131 211.013 24.6513C211.013 24.4861 211 24.2193 211 24.0542C211.883 23.889 212.532 24.0796 212.532 24.9307V26.2773C212.52 26.8998 212.896 27.2682 213.468 27.2682C214.091 27.2682 214.558 26.8617 214.558 26.2519V24.0415H215.532V26.8109C215.532 27.281 215.571 27.408 216 27.3699V27.9415C215.468 28.0305 214.701 28.1321 214.701 27.3063C214.416 27.8272 213.766 27.9924 213.156 27.9924C211.961 27.9797 211.545 27.2301 211.545 26.2901H211.532Z" fill="white"/>
<path d="M209.711 24.0391H208.805C208.805 24.9902 208.428 25.6157 207.384 25.6157H206.943V24H206V28H206.943V26.3713H207.371C207.509 26.3713 207.686 26.3583 207.824 26.3323L208.994 28H210V27.9088L208.654 26.0456C209.497 25.6808 209.723 24.899 209.723 24.0391H209.711Z" fill="white"/>
</svg>
