<svg width="779" height="692" viewBox="0 0 779 692" fill="none" xmlns="http://www.w3.org/2000/svg">
<g clip-path="url(#clip0_125_45)">
<path d="M1423.98 586.606L457.453 -510.329L-55.0002 -58.7971L1423.98 586.606Z" fill="url(#paint0_linear_125_45)"/>
<path d="M457.453 -510.329L-55.0002 -58.7971L908.323 1.37416L457.453 -510.329Z" fill="url(#paint1_linear_125_45)"/>
<path style="mix-blend-mode:multiply" d="M767.541 1165.19L1096.3 214.754L894.51 -14.26L767.541 1165.19Z" fill="url(#paint2_linear_125_45)"/>
<path d="M1075.55 181.488L588.934 -468.552L581.614 551.242L1075.55 181.488Z" fill="url(#paint3_linear_125_45)"/>
<path d="M865.934 -98.5517L581.747 551.392L1075.68 181.638L865.934 -98.5517Z" fill="url(#paint4_linear_125_45)"/>
<path d="M363.746 458.111L486.614 622.242L857.527 344.579L588.398 -468.267L363.746 458.111Z" fill="url(#paint5_linear_125_45)" fill-opacity="0.1" style="mix-blend-mode:overlay"/>
</g>
<defs>
<linearGradient id="paint0_linear_125_45" x1="-186.395" y1="84.227" x2="923.959" y2="39.6858" gradientUnits="userSpaceOnUse">
<stop stop-color="#1A7197"/>
<stop offset="1" stop-color="#202373"/>
</linearGradient>
<linearGradient id="paint1_linear_125_45" x1="703.209" y1="-239.443" x2="11.1539" y2="-302.677" gradientUnits="userSpaceOnUse">
<stop stop-color="#FF00A5"/>
<stop offset="1" stop-color="#19213D"/>
</linearGradient>
<linearGradient id="paint2_linear_125_45" x1="857.372" y1="581.356" x2="1107.65" y2="637.665" gradientUnits="userSpaceOnUse">
<stop stop-color="white"/>
<stop offset="1" stop-color="#353473"/>
</linearGradient>
<linearGradient id="paint3_linear_125_45" x1="730.304" y1="565.813" x2="856.306" y2="-310.133" gradientUnits="userSpaceOnUse">
<stop stop-color="#06B3FF"/>
<stop offset="1" stop-color="#0E9FB0"/>
</linearGradient>
<linearGradient id="paint4_linear_125_45" x1="914.809" y1="375.729" x2="653.818" y2="171.642" gradientUnits="userSpaceOnUse">
<stop stop-color="#1A7197"/>
<stop offset="1" stop-color="#202373"/>
</linearGradient>
<linearGradient id="paint5_linear_125_45" x1="243.307" y1="297.223" x2="831.705" y2="-143.247" gradientUnits="userSpaceOnUse">
<stop stop-color="white" stop-opacity="0"/>
<stop offset="1" stop-color="#06ACB7"/>
</linearGradient>
<clipPath id="clip0_125_45">
<rect width="779" height="691" fill="white" transform="translate(0 0.202881)"/>
</clipPath>
</defs>
</svg>
