<svg width="154" height="47" viewBox="0 0 154 47" fill="none" xmlns="http://www.w3.org/2000/svg">
<path d="M46.2825 0H89.9441C90.3116 0 90.6632 0.0161069 90.9988 0.177176C92.1016 0.724811 92.3253 1.99726 91.5103 3.06032C90.871 3.88177 90.1838 4.67101 89.5285 5.47635C85.0857 10.8883 80.6588 16.3002 76.2319 21.7121C75.8643 22.1631 75.4648 22.5819 75.3849 23.194C75.289 23.8221 75.4328 24.3698 75.8324 24.8691C80.9145 31.0703 85.9806 37.2553 91.0628 43.4565C91.3185 43.7786 91.6221 44.0685 91.7819 44.4712C92.2614 45.6953 91.5103 46.9034 90.1998 46.9839C90.0879 46.9839 89.992 46.9839 89.8961 46.9839C60.8257 46.9839 31.7553 46.9839 2.6849 47C1.72601 47 0.94291 46.7262 0.399538 45.8886C0.127852 45.4698 0 45.035 0 44.5517C0 30.5226 0 16.4774 0 2.44825C0 1.11138 0.958892 0.0805346 2.30134 0C2.47714 0 2.65293 0 2.82873 0H46.2825ZM56.6385 28.2515C56.7984 28.4287 56.8783 28.5093 56.9582 28.6059C59.0198 30.877 61.0654 33.148 63.1111 35.4352C63.4467 35.8218 63.8302 35.999 64.3097 35.999C66.1795 35.999 68.0494 35.999 69.9352 35.999C70.4626 35.999 70.926 35.8379 71.1817 35.3064C71.4215 34.7748 71.1498 34.3561 70.8142 33.9856C68.8804 31.8112 66.9626 29.6367 65.0289 27.4623C64.5654 26.9308 64.5654 26.9308 65.1727 26.5764C70.095 23.6772 70.3987 17.4277 67.5539 13.9164C65.6042 11.5164 62.9832 10.4051 59.9947 10.3084C56.7664 10.1957 53.5541 10.2601 50.3258 10.2601C49.4628 10.2601 49.0633 10.695 49.0473 11.5487C49.0313 19.2639 49.0154 26.9791 48.9834 34.6943C48.9834 35.5319 49.3989 36.0151 50.23 36.0151C51.956 36.0473 53.682 36.0473 55.408 36.0151C56.223 35.999 56.6385 35.5319 56.6385 34.7104C56.6385 32.7293 56.6385 30.7642 56.6385 28.7992V28.2515ZM13.3925 23.1295H13.3606V34.6943C13.3606 35.4997 13.7601 35.9829 14.5752 35.999C16.3651 36.0312 18.139 36.0312 19.929 35.999C20.728 35.9829 21.1755 35.4352 21.1595 34.646C21.1276 32.5843 21.1436 30.5226 21.1436 28.477C21.1436 28.171 21.2235 28.0744 21.5271 28.0905C22.486 28.1066 23.4449 28.1227 24.4198 28.0744C27.0727 27.9616 29.4859 27.2046 31.4836 25.3523C34.8238 22.2437 35.0635 16.9284 31.979 13.5459C29.9814 11.3393 27.3923 10.3729 24.4997 10.2923C21.2554 10.1957 17.9952 10.2601 14.735 10.2601C13.7921 10.2601 13.3765 10.695 13.3765 11.6614C13.3925 15.4626 13.3925 19.2961 13.3925 23.1295ZM36.7735 23.0973V34.7104C36.7735 35.5319 37.189 35.999 38.0041 35.999C39.6502 36.0151 41.3123 36.0151 42.9743 35.999C43.7894 35.999 44.2049 35.5158 44.2049 34.7104V11.5809C44.2049 10.7594 43.7894 10.2923 42.9743 10.2762C41.3123 10.2601 39.6662 10.2601 38.0041 10.2762C37.189 10.2923 36.7735 10.7433 36.7735 11.5809V23.0973Z" fill="white"/>
<path d="M154 24.073C153.937 26.7384 153.175 29.1112 151.209 30.9803C148.005 34.0357 141.773 33.8732 139.236 28.7699C137.396 25.0806 137.57 21.3588 140.029 17.9783C142.915 14.0127 148.941 14.029 151.954 17.897C153.366 19.7173 153.952 21.7976 154 24.073ZM150.384 24.1217C150.384 22.7403 150.115 21.3263 149.274 20.0586C147.815 17.8808 144.326 17.8483 142.851 20.0099C141.392 22.1552 141.297 25.5682 142.677 27.7785C144.199 30.2652 147.879 30.2652 149.417 27.7948C150.083 26.7059 150.321 25.5032 150.384 24.1217Z" fill="white"/>
<path d="M114.972 25.875C113.689 27.6901 112.453 29.4583 111.202 31.2265C110.743 31.8524 110.141 32.1027 109.38 31.9619C108.668 31.8367 108.224 31.4142 108.05 30.7414C107.891 30.0998 108.129 29.5209 108.509 29.0045C109.919 27.0955 111.297 25.1709 112.723 23.2619C112.929 22.9802 112.913 22.8081 112.723 22.5421C111.551 20.9617 110.41 19.3657 109.269 17.7696C108.826 17.175 108.715 16.5491 109.079 15.8763C109.729 14.7184 111.297 14.7027 112.121 15.8606C112.992 17.0968 113.847 18.3486 114.719 19.5847C114.798 19.6943 114.877 19.8195 114.988 19.9603C115.099 19.8195 115.194 19.7099 115.273 19.6004C116.128 18.3642 116.984 17.1281 117.839 15.9076C118.219 15.3756 118.695 15 119.392 15C120.77 15 121.562 16.3614 120.881 17.5349C120.69 17.8635 120.453 18.1608 120.231 18.4738C119.233 19.8508 118.251 21.2277 117.237 22.5891C117.047 22.8394 117.079 22.9959 117.253 23.2306C118.679 25.1552 120.089 27.0799 121.498 29.0202C121.878 29.5365 122.116 30.1155 121.942 30.757C121.768 31.4299 121.308 31.8367 120.611 31.9619C119.867 32.0871 119.265 31.8524 118.821 31.2421C117.649 29.5991 116.477 27.9405 115.321 26.2819C115.194 26.1567 115.099 26.0315 114.972 25.875Z" fill="white"/>
<path d="M125.016 23.4774C125.016 21.276 125.016 19.0589 125.016 16.8575C125.016 15.8197 125.58 15.0964 126.642 15.0806C128.687 15.0492 130.764 14.829 132.792 15.2851C135.239 15.8354 136.914 17.911 136.994 20.364C137.058 22.0151 136.608 23.4931 135.368 24.6725C134.386 25.6159 133.195 26.1034 131.842 26.2292C130.876 26.3235 129.894 26.2921 128.928 26.2763C128.59 26.2763 128.526 26.3707 128.526 26.6852C128.542 27.8645 128.526 29.0281 128.526 30.2074C128.526 31.261 127.801 32 126.755 32C125.724 32 125 31.2452 125 30.1917C125.016 27.9431 125.016 25.7103 125.016 23.4774ZM128.542 20.6313C128.542 21.3704 128.542 22.1251 128.542 22.8799C128.542 23.0214 128.51 23.1787 128.735 23.1787C129.572 23.1472 130.409 23.2416 131.247 23.1315C132.631 22.9585 133.404 21.9364 133.323 20.4426C133.259 19.1375 132.325 18.2255 130.989 18.1783C130.264 18.1626 129.54 18.1783 128.816 18.1626C128.542 18.1626 128.51 18.2727 128.51 18.4928C128.542 19.1847 128.542 19.908 128.542 20.6313Z" fill="white"/>
<path d="M97 23.6254C97 21.4282 97 19.2152 97 17.0021C97 15.7284 97.6526 15.0119 98.8667 15.0119C100.612 14.996 102.342 14.996 104.072 15.0119C104.74 15.0119 105.317 15.2189 105.62 15.9035C105.893 16.5245 105.833 17.1295 105.453 17.6867C105.104 18.1962 104.603 18.3077 104.042 18.3077C102.934 18.3077 101.826 18.3236 100.718 18.3077C100.415 18.3077 100.293 18.3554 100.308 18.7216C100.339 19.6132 100.324 20.5048 100.308 21.3805C100.308 21.6989 100.369 21.7944 100.688 21.7944C101.75 21.7626 102.797 21.7626 103.844 21.7944C104.968 21.8103 105.605 22.479 105.559 23.5617C105.529 24.3259 104.983 24.9787 104.269 25.0424C103.116 25.1538 101.947 25.0901 100.794 25.0742C100.399 25.0742 100.324 25.1857 100.324 25.5678C100.354 26.4753 100.354 27.3828 100.324 28.2744C100.308 28.6406 100.43 28.7202 100.764 28.7202C102.023 28.7043 103.283 28.7043 104.543 28.7202C105.317 28.7361 105.893 29.3093 105.984 30.0894C106.091 30.981 105.65 31.7453 104.876 31.9363C104.679 31.9841 104.467 32 104.269 32C102.479 32 100.688 32 98.897 32C97.6678 32 97.0304 31.3313 97.0304 30.0417C97 27.9241 97 25.7748 97 23.6254Z" fill="white"/>
<path d="M56 19.4783C56 18.7702 56 18.0621 56 17.3372C56 17.0843 56.0658 17 56.3289 17C57.1184 17.0169 57.9078 17 58.6972 17.0169C60.0623 17.0506 60.9833 18.0453 60.9998 19.4446C61.0162 20.8607 60.161 21.8217 58.7959 21.9566C57.9571 22.0409 57.1348 21.9734 56.3125 21.9903C56.0658 21.9903 56.0165 21.8891 56.0165 21.6531C56 20.9282 56 20.2032 56 19.4783Z" fill="white"/>
<path d="M21 19.4826C21 18.7751 21 18.0507 21 17.3432C21 17.0737 21.0804 17.0063 21.3217 17.0063C22.1261 17.0231 22.9466 16.9726 23.7509 17.0231C24.7162 17.0905 25.4884 17.5285 25.8262 18.5392C26.148 19.5499 26.0514 20.527 25.2953 21.3187C24.7805 21.8577 24.1049 21.9757 23.4131 21.9925C22.7214 22.0094 22.0135 21.9925 21.3217 21.9925C21.0804 21.9925 21 21.9251 21 21.6556C21 20.9313 21 20.2069 21 19.4826Z" fill="white"/>
</svg>
