<svg width="261" height="260" viewBox="0 0 261 260" fill="none" xmlns="http://www.w3.org/2000/svg">
<g clip-path="url(#clip0_87_184)">
<rect x="0.178223" width="260" height="260" rx="45" fill="#0E1220"/>
<g filter="url(#filter0_f_87_184)">
<circle cx="111.228" cy="139.644" r="114.331" fill="#2980D6"/>
</g>
<path d="M88.3086 235.19V207.629C88.3086 189.078 73.2715 174.04 54.7215 174.04H53.5116C34.9616 174.04 19.9246 189.078 19.9246 207.629V216.102H27.7456L54.1166 181.395L80.4876 216.102H61.6135L63.653 205.805H44.377L47.8987 225.09L210.506 224.727L229.307 201.061H110.601L114.636 190.258H210.653L198.718 176.659H167.093V148.044H152.415V166.729H137.84L137.892 115.446H187.108V166.729H212.01V108.139H218.746V97.6555H127.059V166.729H116.395V92.2555V24.8096L67.6931 49.6043V142.768V154.613H103.151L93.2734 167.114H32.261L22.5128 154.613H56.2166V63.8339L30.4202 142.768H67.6931H93.2691C83.1174 118.231 93.391 103.272 116.395 92.2555C117.625 91.6665 118.891 91.0886 120.193 90.5212L172.023 67.9346C172.023 67.9346 157.332 75.7429 145.54 62.3517L135.308 51.7476L143.138 48.3555L159.579 55.615C160.724 56.1206 162.033 56.1033 163.161 55.5675L220.613 29.4721L238.022 33.2228C240.801 33.8192 241.323 37.557 238.817 38.8922C228.797 44.2288 211.051 52.7717 211.051 52.7717L199.362 82.0475C199.202 82.4494 198.891 82.7734 198.494 82.9506L193.352 85.6081L183.565 68.6692" fill="white"/>
</g>
<defs>
<filter id="filter0_f_87_184" x="-297.012" y="-268.597" width="816.481" height="816.481" filterUnits="userSpaceOnUse" color-interpolation-filters="sRGB">
<feFlood flood-opacity="0" result="BackgroundImageFix"/>
<feBlend mode="normal" in="SourceGraphic" in2="BackgroundImageFix" result="shape"/>
<feGaussianBlur stdDeviation="146.955" result="effect1_foregroundBlur_87_184"/>
</filter>
<clipPath id="clip0_87_184">
<rect x="0.178223" width="260" height="260" rx="45" fill="white"/>
</clipPath>
</defs>
</svg>
