<svg width="284" height="49" viewBox="0 0 284 49" fill="none" xmlns="http://www.w3.org/2000/svg">
<path d="M15.092 17.544V15.388H21.756V17.544H25.872C31.5 17.544 35.868 19.784 35.868 25.664V25.888C35.868 31.768 31.5 34.372 25.816 34.372H21.756V36.78H15.092V34.372H11.032C5.348 34.372 0.98 31.768 0.98 25.888V25.664C0.98 19.784 5.348 17.544 10.976 17.544H15.092ZM15.092 22.472H12.404C9.688 22.472 7.952 23.424 7.952 25.664V25.888C7.952 28.436 9.632 29.444 12.404 29.444H15.092V22.472ZM21.756 22.472V29.444H24.416C27.188 29.444 28.896 28.436 28.896 25.888V25.664C28.896 23.424 27.188 22.472 24.416 22.472H21.756ZM53.9954 30.06H46.0154V36.5H39.3234V15.668H53.9954C61.1634 15.668 63.2074 18.552 63.2074 22.64V22.976C63.2074 27.036 61.1074 30.06 53.9954 30.06ZM46.0154 20.68V25.076H53.4354C55.5354 25.076 56.2634 24.208 56.2634 22.892V22.808C56.2634 21.576 55.5354 20.68 53.4354 20.68H46.0154ZM81.7219 30.06H73.7419V36.5H67.0499V15.668H81.7219C88.8899 15.668 90.9339 18.552 90.9339 22.64V22.976C90.9339 27.036 88.8339 30.06 81.7219 30.06ZM73.7419 20.68V25.076H81.1619C83.2619 25.076 83.9899 24.208 83.9899 22.892V22.808C83.9899 21.576 83.2619 20.68 81.1619 20.68H73.7419Z" fill="white"/>
<line x1="108.44" y1="3.5" x2="108.44" y2="45.5" stroke="white" stroke-width="1.66104"/>
<path d="M127.641 10.0469H124.782V8.07031H127.641C128.063 8.07031 128.402 8 128.657 7.85938C128.917 7.71875 129.107 7.52604 129.227 7.28125C129.352 7.03125 129.415 6.75 129.415 6.4375C129.415 6.11458 129.352 5.8151 129.227 5.53906C129.107 5.25781 128.917 5.03125 128.657 4.85938C128.402 4.6875 128.063 4.60156 127.641 4.60156H125.704V14H123.157V2.625H127.641C128.547 2.625 129.323 2.78906 129.969 3.11719C130.62 3.44531 131.118 3.89583 131.461 4.46875C131.81 5.03646 131.985 5.6875 131.985 6.42188C131.985 7.15625 131.81 7.79427 131.461 8.33594C131.118 8.8776 130.62 9.29948 129.969 9.60156C129.323 9.89844 128.547 10.0469 127.641 10.0469ZM136.915 4.78906L133.977 14H131.258L135.469 2.625H137.188L136.915 4.78906ZM139.352 14L136.407 4.78906L136.102 2.625H137.844L142.071 14H139.352ZM139.227 9.76562V11.7344H133.297V9.76562H139.227ZM147.454 8.55469H145.594V7.24219H147.016C147.396 7.24219 147.701 7.18229 147.93 7.0625C148.165 6.94271 148.334 6.77083 148.438 6.54688C148.547 6.32292 148.602 6.0625 148.602 5.76562C148.602 5.52604 148.54 5.30729 148.415 5.10938C148.295 4.90625 148.11 4.74479 147.86 4.625C147.61 4.50521 147.29 4.44531 146.899 4.44531C146.597 4.44531 146.323 4.49479 146.079 4.59375C145.834 4.69271 145.641 4.83854 145.5 5.03125C145.36 5.21875 145.29 5.44792 145.29 5.71875H142.75C142.75 5.20833 142.86 4.75521 143.079 4.35938C143.303 3.95833 143.605 3.61979 143.985 3.34375C144.37 3.0625 144.813 2.84896 145.313 2.70312C145.813 2.55208 146.342 2.47656 146.899 2.47656C147.54 2.47656 148.12 2.54688 148.641 2.6875C149.162 2.82292 149.61 3.02604 149.985 3.29688C150.36 3.56771 150.646 3.90625 150.844 4.3125C151.047 4.71354 151.149 5.17969 151.149 5.71094C151.149 6.10156 151.06 6.46875 150.883 6.8125C150.711 7.15625 150.461 7.45833 150.133 7.71875C149.81 7.97917 149.42 8.1849 148.961 8.33594C148.508 8.48177 148.006 8.55469 147.454 8.55469ZM145.594 7.85938H147.454C148.068 7.85938 148.615 7.92448 149.094 8.05469C149.573 8.1849 149.977 8.375 150.305 8.625C150.639 8.875 150.891 9.1849 151.063 9.55469C151.24 9.91927 151.329 10.3385 151.329 10.8125C151.329 11.3438 151.219 11.8177 151 12.2344C150.782 12.6458 150.472 12.9948 150.071 13.2812C149.675 13.5677 149.206 13.7839 148.665 13.9297C148.128 14.0755 147.54 14.1484 146.899 14.1484C146.378 14.1484 145.86 14.0859 145.344 13.9609C144.834 13.8307 144.37 13.6328 143.954 13.3672C143.542 13.1016 143.211 12.7604 142.961 12.3438C142.711 11.9271 142.586 11.4271 142.586 10.8438H145.133C145.133 11.099 145.209 11.3281 145.36 11.5312C145.511 11.7344 145.719 11.8958 145.985 12.0156C146.25 12.1302 146.555 12.1875 146.899 12.1875C147.295 12.1875 147.633 12.125 147.915 12C148.196 11.875 148.409 11.7057 148.555 11.4922C148.701 11.2734 148.774 11.0312 148.774 10.7656C148.774 10.474 148.737 10.2266 148.665 10.0234C148.592 9.8151 148.48 9.64844 148.329 9.52344C148.183 9.39323 147.998 9.29948 147.774 9.24219C147.555 9.17969 147.303 9.14844 147.016 9.14844H145.594V7.85938ZM157.547 9.08594H154.625L154.61 7.38281H157.024C157.451 7.38281 157.797 7.33073 158.063 7.22656C158.334 7.1224 158.532 6.97135 158.657 6.77344C158.782 6.57031 158.844 6.32031 158.844 6.02344C158.844 5.6849 158.782 5.41146 158.657 5.20312C158.532 4.99479 158.334 4.84375 158.063 4.75C157.797 4.65104 157.454 4.60156 157.032 4.60156H155.547V14H153V2.625H157.032C157.714 2.625 158.323 2.6875 158.86 2.8125C159.396 2.9375 159.852 3.13021 160.227 3.39062C160.607 3.65104 160.896 3.97656 161.094 4.36719C161.292 4.75781 161.391 5.21875 161.391 5.75C161.391 6.21354 161.287 6.64583 161.079 7.04688C160.875 7.44792 160.547 7.77344 160.094 8.02344C159.641 8.27344 159.034 8.40885 158.274 8.42969L157.547 9.08594ZM157.446 14H153.977L154.899 12.0312H157.446C157.836 12.0312 158.154 11.9688 158.399 11.8438C158.644 11.7188 158.823 11.5495 158.938 11.3359C159.053 11.1224 159.11 10.8828 159.11 10.6172C159.11 10.3047 159.055 10.0339 158.946 9.80469C158.842 9.57552 158.675 9.39844 158.446 9.27344C158.222 9.14844 157.922 9.08594 157.547 9.08594H155.266L155.282 7.38281H158.071L158.665 8.05469C159.389 8.03906 159.967 8.15625 160.399 8.40625C160.836 8.65104 161.152 8.97396 161.344 9.375C161.537 9.77604 161.633 10.2005 161.633 10.6484C161.633 11.388 161.474 12.0078 161.157 12.5078C160.839 13.0026 160.368 13.375 159.743 13.625C159.123 13.875 158.357 14 157.446 14ZM165.704 10.0625L170.04 2.625H172.579V14H170.04V6.57031L165.704 14H163.165V2.625H165.704V10.0625ZM179.485 2.625V14H176.946V2.625H179.485ZM182.946 2.625V4.60156H173.555V2.625H182.946ZM186.625 10.0625L190.961 2.625H193.5V14H190.961V6.57031L186.625 14H184.086V2.625H186.625V10.0625ZM203.079 12.0312V14H197.024V12.0312H203.079ZM197.891 2.625V14H195.344V2.625H197.891ZM202.297 7.20312V9.10938H197.024V7.20312H202.297ZM203.086 2.625V4.60156H197.024V2.625H203.086ZM128.454 18.625V30H125.915V18.625H128.454ZM131.915 18.625V20.6016H122.524V18.625H131.915ZM136.766 25.7969L139.5 18.625H142.211L138.344 27.7188C138.204 28.0417 138.042 28.3516 137.86 28.6484C137.678 28.9401 137.461 29.2005 137.211 29.4297C136.967 29.6536 136.672 29.8333 136.329 29.9688C135.99 30.099 135.589 30.1641 135.125 30.1641C135.006 30.1641 134.862 30.1615 134.696 30.1562C134.534 30.151 134.399 30.1458 134.29 30.1406L134.258 28.1641C134.326 28.1797 134.422 28.1901 134.547 28.1953C134.678 28.1953 134.769 28.1953 134.821 28.1953C135.133 28.1953 135.378 28.1536 135.555 28.0703C135.737 27.987 135.881 27.8672 135.985 27.7109C136.094 27.5547 136.191 27.3594 136.274 27.125L136.766 25.7969ZM135.071 18.625L137.54 23.9062L138.344 26.7812L136.493 26.7969L132.36 18.625H135.071ZM147.782 26.0469H144.922V24.0703H147.782C148.204 24.0703 148.542 24 148.797 23.8594C149.058 23.7188 149.248 23.526 149.368 23.2812C149.493 23.0312 149.555 22.75 149.555 22.4375C149.555 22.1146 149.493 21.8151 149.368 21.5391C149.248 21.2578 149.058 21.0312 148.797 20.8594C148.542 20.6875 148.204 20.6016 147.782 20.6016H145.844V30H143.297V18.625H147.782C148.688 18.625 149.464 18.7891 150.11 19.1172C150.761 19.4453 151.258 19.8958 151.602 20.4688C151.951 21.0365 152.125 21.6875 152.125 22.4219C152.125 23.1562 151.951 23.7943 151.602 24.3359C151.258 24.8776 150.761 25.2995 150.11 25.6016C149.464 25.8984 148.688 26.0469 147.782 26.0469ZM156.094 26.0625L160.43 18.625H162.969V30H160.43V22.5703L156.094 30H153.555V18.625H156.094V26.0625ZM171.352 26.1875H173.883C173.842 26.9688 173.628 27.6589 173.243 28.2578C172.862 28.8516 172.334 29.3177 171.657 29.6562C170.98 29.9896 170.175 30.1562 169.243 30.1562C168.498 30.1562 167.831 30.0286 167.243 29.7734C166.654 29.5182 166.154 29.1536 165.743 28.6797C165.336 28.2005 165.024 27.625 164.805 26.9531C164.592 26.276 164.485 25.513 164.485 24.6641V23.9688C164.485 23.1198 164.597 22.3568 164.821 21.6797C165.045 21.0026 165.365 20.4245 165.782 19.9453C166.198 19.4661 166.698 19.099 167.282 18.8438C167.865 18.5885 168.516 18.4609 169.235 18.4609C170.204 18.4609 171.021 18.6354 171.688 18.9844C172.355 19.3333 172.87 19.8125 173.235 20.4219C173.605 21.0312 173.826 21.7266 173.899 22.5078H171.36C171.339 22.0651 171.256 21.6927 171.11 21.3906C170.964 21.0833 170.74 20.8516 170.438 20.6953C170.136 20.5391 169.735 20.4609 169.235 20.4609C168.87 20.4609 168.55 20.5286 168.274 20.6641C168.003 20.7995 167.777 21.0104 167.594 21.2969C167.417 21.5833 167.284 21.9479 167.196 22.3906C167.107 22.8281 167.063 23.349 167.063 23.9531V24.6641C167.063 25.263 167.102 25.7812 167.18 26.2188C167.258 26.6562 167.383 27.0182 167.555 27.3047C167.732 27.5911 167.959 27.8047 168.235 27.9453C168.511 28.0859 168.847 28.1562 169.243 28.1562C169.696 28.1562 170.073 28.0859 170.375 27.9453C170.678 27.7995 170.909 27.5807 171.071 27.2891C171.232 26.9974 171.326 26.6302 171.352 26.1875ZM180.36 18.625V30H177.821V18.625H180.36ZM183.821 18.625V20.6016H174.43V18.625H183.821ZM187.618 18.625V30H185.079V18.625H187.618ZM194.25 18.625L190.024 25.3984H187.118L186.805 23.125H188.696L191.172 18.625H194.25ZM191.618 30L188.696 24.9688L190.5 23.2188L194.633 30H191.618ZM204.657 24.0625V24.5703C204.657 25.4349 204.537 26.2109 204.297 26.8984C204.063 27.5859 203.727 28.1719 203.29 28.6562C202.857 29.1406 202.342 29.513 201.743 29.7734C201.149 30.0286 200.49 30.1562 199.766 30.1562C199.042 30.1562 198.381 30.0286 197.782 29.7734C197.183 29.513 196.662 29.1406 196.219 28.6562C195.782 28.1719 195.443 27.5859 195.204 26.8984C194.964 26.2109 194.844 25.4349 194.844 24.5703V24.0625C194.844 23.1979 194.964 22.4219 195.204 21.7344C195.443 21.0417 195.779 20.4531 196.211 19.9688C196.649 19.4844 197.167 19.1146 197.766 18.8594C198.365 18.599 199.027 18.4688 199.75 18.4688C200.474 18.4688 201.136 18.599 201.735 18.8594C202.334 19.1146 202.849 19.4844 203.282 19.9688C203.719 20.4531 204.058 21.0417 204.297 21.7344C204.537 22.4219 204.657 23.1979 204.657 24.0625ZM202.086 24.5703V24.0469C202.086 23.4688 202.034 22.9583 201.93 22.5156C201.826 22.0677 201.675 21.6927 201.477 21.3906C201.279 21.0885 201.034 20.862 200.743 20.7109C200.451 20.5547 200.12 20.4766 199.75 20.4766C199.365 20.4766 199.029 20.5547 198.743 20.7109C198.456 20.862 198.214 21.0885 198.016 21.3906C197.823 21.6927 197.675 22.0677 197.571 22.5156C197.472 22.9583 197.422 23.4688 197.422 24.0469V24.5703C197.422 25.1432 197.472 25.6536 197.571 26.1016C197.675 26.5443 197.826 26.9193 198.024 27.2266C198.222 27.5339 198.464 27.7656 198.75 27.9219C199.042 28.0781 199.381 28.1562 199.766 28.1562C200.136 28.1562 200.464 28.0781 200.75 27.9219C201.042 27.7656 201.287 27.5339 201.485 27.2266C201.683 26.9193 201.831 26.5443 201.93 26.1016C202.034 25.6536 202.086 25.1432 202.086 24.5703ZM208.641 26.0625L212.977 18.625H215.516V30H212.977V22.5703L208.641 30H206.102V18.625H208.641V26.0625ZM211.93 15.6016H213.633C213.633 16.0599 213.519 16.4661 213.29 16.8203C213.06 17.1745 212.735 17.4505 212.313 17.6484C211.896 17.8464 211.402 17.9453 210.829 17.9453C209.969 17.9453 209.287 17.7292 208.782 17.2969C208.277 16.8594 208.024 16.2943 208.024 15.6016H209.719C209.719 15.8672 209.803 16.1042 209.969 16.3125C210.141 16.5156 210.428 16.6172 210.829 16.6172C211.235 16.6172 211.519 16.5156 211.68 16.3125C211.847 16.1042 211.93 15.8672 211.93 15.6016ZM125.579 42.0625L129.915 34.625H132.454V46H129.915V38.5703L125.579 46H123.04V34.625H125.579V42.0625ZM141.93 39.2031V41.1719H136.04V39.2031H141.93ZM136.844 34.625V46H134.297V34.625H136.844ZM143.688 34.625V46H141.149V34.625H143.688ZM149.946 35.6172H152.633C153.316 35.6172 153.943 35.7292 154.516 35.9531C155.094 36.1771 155.597 36.4974 156.024 36.9141C156.451 37.3307 156.782 37.8307 157.016 38.4141C157.25 38.9974 157.368 39.651 157.368 40.375C157.368 41.0781 157.25 41.7161 157.016 42.2891C156.782 42.8568 156.451 43.3464 156.024 43.7578C155.597 44.1641 155.094 44.4766 154.516 44.6953C153.943 44.9089 153.316 45.0156 152.633 45.0156H149.946C149.258 45.0156 148.625 44.9089 148.047 44.6953C147.469 44.4766 146.964 44.1641 146.532 43.7578C146.105 43.3516 145.774 42.8646 145.54 42.2969C145.305 41.7292 145.188 41.0938 145.188 40.3906C145.188 39.6667 145.305 39.013 145.54 38.4297C145.774 37.8464 146.105 37.3438 146.532 36.9219C146.964 36.5 147.469 36.1771 148.047 35.9531C148.625 35.7292 149.258 35.6172 149.946 35.6172ZM149.946 37.6562C149.487 37.6562 149.079 37.7578 148.719 37.9609C148.365 38.1641 148.086 38.4688 147.883 38.875C147.685 39.276 147.586 39.7812 147.586 40.3906C147.586 40.8177 147.644 41.1953 147.758 41.5234C147.878 41.8464 148.045 42.1146 148.258 42.3281C148.477 42.5417 148.73 42.7031 149.016 42.8125C149.303 42.9219 149.612 42.9766 149.946 42.9766H152.649C153.102 42.9766 153.5 42.8802 153.844 42.6875C154.193 42.4896 154.467 42.1953 154.665 41.8047C154.862 41.4141 154.961 40.9375 154.961 40.375C154.961 39.9219 154.904 39.526 154.79 39.1875C154.675 38.849 154.514 38.5677 154.305 38.3438C154.102 38.1146 153.86 37.9427 153.579 37.8281C153.297 37.7135 152.987 37.6562 152.649 37.6562H149.946ZM152.508 34.1562V46.4688H150.071V34.1562H152.508ZM163.297 42.0469H160.438V40.0703H163.297C163.719 40.0703 164.058 40 164.313 39.8594C164.573 39.7188 164.764 39.526 164.883 39.2812C165.008 39.0312 165.071 38.75 165.071 38.4375C165.071 38.1146 165.008 37.8151 164.883 37.5391C164.764 37.2578 164.573 37.0312 164.313 36.8594C164.058 36.6875 163.719 36.6016 163.297 36.6016H161.36V46H158.813V34.625H163.297C164.204 34.625 164.98 34.7891 165.625 35.1172C166.277 35.4453 166.774 35.8958 167.118 36.4688C167.467 37.0365 167.641 37.6875 167.641 38.4219C167.641 39.1562 167.467 39.7943 167.118 40.3359C166.774 40.8776 166.277 41.2995 165.625 41.6016C164.98 41.8984 164.204 42.0469 163.297 42.0469ZM172.571 36.7891L169.633 46H166.915L171.125 34.625H172.844L172.571 36.7891ZM175.008 46L172.063 36.7891L171.758 34.625H173.5L177.727 46H175.008ZM174.883 41.7656V43.7344H168.954V41.7656H174.883ZM185.055 42.1875H187.586C187.545 42.9688 187.331 43.6589 186.946 44.2578C186.566 44.8516 186.037 45.3177 185.36 45.6562C184.683 45.9896 183.878 46.1562 182.946 46.1562C182.201 46.1562 181.534 46.0286 180.946 45.7734C180.357 45.5182 179.857 45.1536 179.446 44.6797C179.04 44.2005 178.727 43.625 178.508 42.9531C178.295 42.276 178.188 41.513 178.188 40.6641V39.9688C178.188 39.1198 178.3 38.3568 178.524 37.6797C178.748 37.0026 179.068 36.4245 179.485 35.9453C179.902 35.4661 180.402 35.099 180.985 34.8438C181.568 34.5885 182.219 34.4609 182.938 34.4609C183.907 34.4609 184.724 34.6354 185.391 34.9844C186.058 35.3333 186.573 35.8125 186.938 36.4219C187.308 37.0312 187.529 37.7266 187.602 38.5078H185.063C185.042 38.0651 184.959 37.6927 184.813 37.3906C184.667 37.0833 184.443 36.8516 184.141 36.6953C183.839 36.5391 183.438 36.4609 182.938 36.4609C182.573 36.4609 182.253 36.5286 181.977 36.6641C181.706 36.7995 181.48 37.0104 181.297 37.2969C181.12 37.5833 180.987 37.9479 180.899 38.3906C180.81 38.8281 180.766 39.349 180.766 39.9531V40.6641C180.766 41.263 180.805 41.7812 180.883 42.2188C180.961 42.6562 181.086 43.0182 181.258 43.3047C181.435 43.5911 181.662 43.8047 181.938 43.9453C182.214 44.0859 182.55 44.1562 182.946 44.1562C183.399 44.1562 183.777 44.0859 184.079 43.9453C184.381 43.7995 184.612 43.5807 184.774 43.2891C184.935 42.9974 185.029 42.6302 185.055 42.1875ZM194.063 34.625V46H191.524V34.625H194.063ZM197.524 34.625V36.6016H188.133V34.625H197.524ZM203.266 42.0469H200.407V40.0703H203.266C203.688 40.0703 204.027 40 204.282 39.8594C204.542 39.7188 204.732 39.526 204.852 39.2812C204.977 39.0312 205.04 38.75 205.04 38.4375C205.04 38.1146 204.977 37.8151 204.852 37.5391C204.732 37.2578 204.542 37.0312 204.282 36.8594C204.027 36.6875 203.688 36.6016 203.266 36.6016H201.329V46H198.782V34.625H203.266C204.172 34.625 204.948 34.7891 205.594 35.1172C206.245 35.4453 206.743 35.8958 207.086 36.4688C207.435 37.0365 207.61 37.6875 207.61 38.4219C207.61 39.1562 207.435 39.7943 207.086 40.3359C206.743 40.8776 206.245 41.2995 205.594 41.6016C204.948 41.8984 204.172 42.0469 203.266 42.0469ZM212.75 41.7969L215.485 34.625H218.196L214.329 43.7188C214.188 44.0417 214.027 44.3516 213.844 44.6484C213.662 44.9401 213.446 45.2005 213.196 45.4297C212.951 45.6536 212.657 45.8333 212.313 45.9688C211.974 46.099 211.573 46.1641 211.11 46.1641C210.99 46.1641 210.847 46.1615 210.68 46.1562C210.519 46.151 210.383 46.1458 210.274 46.1406L210.243 44.1641C210.31 44.1797 210.407 44.1901 210.532 44.1953C210.662 44.1953 210.753 44.1953 210.805 44.1953C211.118 44.1953 211.362 44.1536 211.54 44.0703C211.722 43.987 211.865 43.8672 211.969 43.7109C212.079 43.5547 212.175 43.3594 212.258 43.125L212.75 41.7969ZM211.055 34.625L213.524 39.9062L214.329 42.7812L212.477 42.7969L208.344 34.625H211.055ZM221.821 34.625V46H219.282V34.625H221.821ZM228.454 34.625L224.227 41.3984H221.321L221.008 39.125H222.899L225.375 34.625H228.454ZM225.821 46L222.899 40.9688L224.704 39.2188L228.836 46H225.821ZM234.922 34.625V46H232.383V34.625H234.922ZM238.383 34.625V36.6016H228.993V34.625H238.383ZM243.235 41.7969L245.969 34.625H248.68L244.813 43.7188C244.672 44.0417 244.511 44.3516 244.329 44.6484C244.146 44.9401 243.93 45.2005 243.68 45.4297C243.435 45.6536 243.141 45.8333 242.797 45.9688C242.459 46.099 242.058 46.1641 241.594 46.1641C241.474 46.1641 241.331 46.1615 241.165 46.1562C241.003 46.151 240.868 46.1458 240.758 46.1406L240.727 44.1641C240.795 44.1797 240.891 44.1901 241.016 44.1953C241.146 44.1953 241.237 44.1953 241.29 44.1953C241.602 44.1953 241.847 44.1536 242.024 44.0703C242.206 43.987 242.349 43.8672 242.454 43.7109C242.563 43.5547 242.659 43.3594 242.743 43.125L243.235 41.7969ZM241.54 34.625L244.008 39.9062L244.813 42.7812L242.961 42.7969L238.829 34.625H241.54ZM254.25 42.0469H251.391V40.0703H254.25C254.672 40.0703 255.011 40 255.266 39.8594C255.527 39.7188 255.717 39.526 255.836 39.2812C255.961 39.0312 256.024 38.75 256.024 38.4375C256.024 38.1146 255.961 37.8151 255.836 37.5391C255.717 37.2578 255.527 37.0312 255.266 36.8594C255.011 36.6875 254.672 36.6016 254.25 36.6016H252.313V46H249.766V34.625H254.25C255.157 34.625 255.933 34.7891 256.579 35.1172C257.23 35.4453 257.727 35.8958 258.071 36.4688C258.42 37.0365 258.594 37.6875 258.594 38.4219C258.594 39.1562 258.42 39.7943 258.071 40.3359C257.727 40.8776 257.23 41.2995 256.579 41.6016C255.933 41.8984 255.157 42.0469 254.25 42.0469ZM261.766 38.6562H264.321C265.227 38.6562 266.011 38.8073 266.672 39.1094C267.339 39.4115 267.852 39.8359 268.211 40.3828C268.576 40.9245 268.758 41.5599 268.758 42.2891C268.758 42.8359 268.654 43.3359 268.446 43.7891C268.243 44.2422 267.946 44.6354 267.555 44.9688C267.17 45.2969 266.704 45.5521 266.157 45.7344C265.615 45.9115 265.003 46 264.321 46H260.149V34.625H262.696V44.0312H264.321C264.737 44.0312 265.086 43.9531 265.368 43.7969C265.649 43.6354 265.86 43.4219 266 43.1562C266.146 42.8906 266.219 42.5964 266.219 42.2734C266.219 41.9557 266.146 41.6745 266 41.4297C265.86 41.1797 265.649 40.9844 265.368 40.8438C265.086 40.6979 264.737 40.625 264.321 40.625H261.766V38.6562ZM272.211 34.625V46H269.672V34.625H272.211Z" fill="white"/>
</svg>
