<svg width="41" height="40" viewBox="0 0 41 40" fill="none" xmlns="http://www.w3.org/2000/svg">
<g clip-path="url(#clip0_99_45)">
<rect width="41" height="40" rx="20" fill="#1B0B7E"/>
<path d="M32.7585 17.8777C40.7044 17.8777 47.1502 11.4167 47.1502 3.44667C47.1502 -4.52335 40.7044 -10.9844 32.7585 -10.9844C24.8071 -10.9844 18.3613 -4.52335 18.3613 3.44667C18.3613 11.4167 24.8071 17.8777 32.7585 17.8777Z" fill="#E707A1"/>
<path d="M24.9025 12.5H11V27.5H14.8695V22.6199H22.2841L25.6671 27.5H30L26.2695 22.5975C27.4281 22.4176 28.2622 21.9903 28.772 21.3156C29.2817 20.641 29.5366 19.5615 29.5366 18.1222V16.9978C29.5366 16.1432 29.444 15.4686 29.2817 14.9513C29.1195 14.434 28.8415 13.9843 28.4476 13.5795C28.0305 13.1972 27.5671 12.9273 27.011 12.7474C26.4549 12.5899 25.7597 12.5 24.9025 12.5ZM24.2769 19.3141H14.8695V15.8058H24.2769C24.8098 15.8058 25.1805 15.8958 25.3659 16.0532C25.5512 16.2106 25.6671 16.503 25.6671 16.9303V18.1897C25.6671 18.6395 25.5512 18.9318 25.3659 19.0892C25.1805 19.2466 24.8098 19.3141 24.2769 19.3141Z" fill="white"/>
</g>
<defs>
<clipPath id="clip0_99_45">
<rect width="41" height="40" rx="20" fill="white"/>
</clipPath>
</defs>
</svg>
