<svg width="41" height="41" viewBox="0 0 41 41" fill="none" xmlns="http://www.w3.org/2000/svg">
<circle cx="20.3918" cy="20.6081" r="20.3918" fill="#2388FF"/>
<path fill-rule="evenodd" clip-rule="evenodd" d="M13.0605 19.6351C17.6239 17.6593 20.6669 16.3568 22.1894 15.7275C26.5367 13.9307 27.44 13.6186 28.0287 13.6083C28.1582 13.606 28.4478 13.6379 28.6353 13.7891C28.7937 13.9168 28.8373 14.0893 28.8581 14.2104C28.879 14.3315 28.9049 14.6073 28.8843 14.8228C28.6487 17.2825 27.6294 23.2515 27.1108 26.0064C26.8914 27.1721 26.4593 27.563 26.041 27.6012C25.132 27.6843 24.4417 27.0042 23.5612 26.4307C22.1835 25.5332 21.4051 24.9746 20.0678 24.0988C18.5223 23.0867 19.5242 22.5305 20.405 21.6214C20.6355 21.3835 24.6408 17.7632 24.7183 17.4348C24.728 17.3938 24.737 17.2407 24.6454 17.1598C24.5539 17.079 24.4188 17.1066 24.3213 17.1286C24.1832 17.1598 21.9822 18.6054 17.7185 21.4655C17.0937 21.8918 16.5279 22.0995 16.0209 22.0886C15.462 22.0766 14.3868 21.7745 13.5876 21.5164C12.6073 21.1997 11.8281 21.0323 11.896 20.4945C11.9313 20.2144 12.3195 19.9279 13.0605 19.6351Z" fill="white"/>
</svg>
