<svg width="109" height="284" viewBox="0 0 109 284" fill="none" xmlns="http://www.w3.org/2000/svg">
    <path opacity="0.05" d="M74.2262 41.0999L74.2262 68.4539L56.9733 68.4539L56.9733 41.0999C56.9733 36.8727 56.2851 33.4319 54.9088 30.7776C53.4834 28.1233 51.5172 26.1818 49.0104 24.953C46.5035 23.7241 43.6772 23.1097 40.5314 23.1097C37.3364 23.1097 34.3626 23.7241 31.61 24.953C28.8574 26.1818 26.6455 28.1234 24.9742 30.7776C23.303 33.4319 22.4674 36.8727 22.4674 41.0999L22.4674 60.7859L112.492 60.7859L112.492 82.9051L5.14075 82.9051L5.14075 41.0999C5.14074 32.6946 6.66451 25.4936 9.71203 19.4969C12.7104 13.451 16.8639 8.83056 22.1725 5.63557C27.4811 2.44059 33.5516 0.843093 40.3839 0.843092C47.3146 0.843092 53.3113 2.44059 58.3741 5.63557C63.437 8.83056 67.3447 13.451 70.0973 19.4969C72.8499 25.4936 74.2262 32.6946 74.2262 41.0999Z" fill="white"/>
    <path opacity="0.05" d="M74.2262 126.162L74.2262 153.516L56.9733 153.516L56.9733 126.162C56.9733 121.935 56.2851 118.494 54.9088 115.84C53.4834 113.185 51.5172 111.244 49.0104 110.015C46.5035 108.786 43.6772 108.172 40.5314 108.172C37.3364 108.172 34.3626 108.786 31.61 110.015C28.8574 111.244 26.6455 113.185 24.9742 115.84C23.303 118.494 22.4674 121.935 22.4674 126.162L22.4674 145.848L112.492 145.848L112.492 167.967L5.14075 167.967L5.14075 126.162C5.14074 117.757 6.66451 110.556 9.71203 104.559C12.7104 98.5129 16.8639 93.8925 22.1725 90.6975C27.4811 87.5025 33.5516 85.905 40.3839 85.905C47.3146 85.905 53.3113 87.5025 58.3741 90.6975C63.437 93.8925 67.3447 98.5129 70.0973 104.559C72.8499 110.556 74.2262 117.757 74.2262 126.162Z" fill="white"/>
    <path opacity="0.05" d="M14.7994 239.315L14.7994 215.427C14.7994 209.037 15.8562 203.138 17.9698 197.731C20.0343 192.324 23.0327 187.63 26.965 183.649C30.8481 179.618 35.5423 176.497 41.0475 174.285C46.5035 172.073 52.5986 170.967 59.3326 170.967C65.9192 170.967 71.916 172.073 77.3229 174.285C82.6806 176.497 87.2765 179.618 91.1105 183.649C94.9445 187.63 97.8937 192.324 99.9581 197.731C102.023 203.138 103.055 209.037 103.055 215.427L103.055 239.315C103.055 245.754 102.023 251.677 99.9581 257.084C97.8937 262.491 94.969 267.21 91.1842 271.24C87.3502 275.271 82.7544 278.417 77.3966 280.678C72.0389 282.89 66.0667 283.996 59.4801 283.996C52.7461 283.996 46.651 282.89 41.1949 280.678C35.6897 278.417 30.971 275.271 27.0387 271.24C23.1064 267.21 20.0835 262.491 17.9698 257.084C15.8562 251.677 14.7994 245.754 14.7994 239.315ZM32.4947 239.315C32.4947 244.034 33.527 248.187 35.5914 251.776C37.6559 255.364 40.7034 258.141 44.734 260.107C48.7155 262.073 53.6308 263.056 59.4801 263.056C63.7073 263.056 67.443 262.491 70.6871 261.361C73.8821 260.181 76.561 258.534 78.7238 256.421C80.8865 254.307 82.5332 251.8 83.6637 248.9C84.7942 246 85.3595 242.805 85.3595 239.315L85.3595 215.279C85.3595 210.609 84.3518 206.53 82.3365 203.04C80.3212 199.501 77.372 196.748 73.4889 194.782C69.6057 192.816 64.887 191.833 59.3326 191.833C54.958 191.833 51.0994 192.398 47.757 193.529C44.4145 194.659 41.6127 196.257 39.3517 198.321C37.0906 200.385 35.3948 202.868 34.2643 205.768C33.0846 208.619 32.4947 211.789 32.4947 215.279L32.4947 239.315ZM0.716916 216.754L116.916 216.754L116.916 237.988L0.716917 237.988L0.716916 216.754Z" fill="white"/>
</svg>
